<svg width="39" height="37" viewBox="0 0 39 37" fill="none" xmlns="http://www.w3.org/2000/svg">
<g clip-path="url(#clip0_52_1854)">
<path fill-rule="evenodd" clip-rule="evenodd" d="M23.7147 31.1072C23.7581 30.9391 23.8028 30.7661 23.9289 30.5948L23.9682 30.6754C24.1868 31.124 24.3913 31.5438 24.6002 31.9592C24.6731 32.1027 24.6537 32.1829 24.4883 32.234C24.3059 32.2899 24.1454 32.3921 24.0237 32.5453C23.8924 32.7107 23.8511 32.9053 23.9167 33.0974C23.98 33.2871 24.1624 33.3625 24.3472 33.3892C24.5394 33.4184 24.7364 33.4306 24.9334 33.4306C25.5181 33.4379 26.1035 33.4433 26.6889 33.4488C27.2745 33.4543 27.8602 33.4598 28.4453 33.4671C28.4689 33.4677 28.497 33.4647 28.5259 33.4615C28.6072 33.4527 28.6948 33.4433 28.7055 33.5133C28.7171 33.5945 28.6196 33.628 28.5327 33.6579C28.5103 33.6656 28.4886 33.6731 28.4696 33.6811C27.9127 33.9097 27.3241 33.9802 26.7307 34.0143C25.7359 34.0727 24.7461 33.9851 23.7562 33.8927C23.2479 33.8465 22.7323 33.8003 22.2362 33.9559C21.8227 34.0872 21.4433 34.277 21.3339 34.7585C21.2828 34.9896 21.3339 35.0601 21.5722 35.0601C21.6628 35.0608 21.7533 35.0597 21.8439 35.0586C22.0476 35.0562 22.2513 35.0537 22.455 35.0722C22.9301 35.1167 23.4001 35.1948 23.8706 35.273C23.9662 35.2888 24.0618 35.3047 24.1575 35.3203C24.3654 35.3543 24.574 35.3834 24.7826 35.4125C24.9619 35.4375 25.1413 35.4625 25.3201 35.4906C26.0521 35.6073 26.789 35.6389 27.5284 35.5854C27.8908 35.5587 28.2556 35.4954 28.601 35.3763C29.5106 35.0601 30.3277 34.5883 31.0476 33.9462C31.2758 33.4899 31.6794 33.5057 32.0803 33.5213C32.1197 33.5228 32.1589 33.5243 32.198 33.5254C32.5385 33.5327 32.8814 33.5303 33.2098 33.4403C34.0416 33.2093 34.6107 32.5088 34.6155 31.6138C34.6187 30.9604 34.6265 30.3066 34.6342 29.6527C34.6443 28.8024 34.6544 27.9519 34.6544 27.1023C34.6577 24.054 34.6566 21.0058 34.6555 17.9576C34.655 16.4335 34.6544 14.9094 34.6544 13.3852C34.6544 13.1858 34.6557 12.9864 34.6569 12.7869C34.6581 12.5875 34.6593 12.3881 34.6593 12.1887C34.6593 12.0598 34.6958 12.0135 34.815 12.1011C34.8346 12.1155 34.8556 12.1278 34.8769 12.1402C34.8952 12.1509 34.9137 12.1617 34.9317 12.1741C35.086 12.2791 35.2403 12.3837 35.3946 12.4883C35.9798 12.8849 36.5641 13.2808 37.1376 13.6966C37.4781 13.9446 37.8551 14.093 38.2612 13.8425C38.9009 13.4485 38.9301 12.6264 38.3099 12.1741C37.564 11.6289 36.7918 11.1221 36.0198 10.6154C35.6414 10.3671 35.2631 10.1188 34.8879 9.866C34.1216 9.35023 33.3456 8.85119 32.5693 8.35199C32.3206 8.19209 32.0719 8.03217 31.8235 7.87168C31.3744 7.58207 30.9232 7.29536 30.4722 7.00878C30.0976 6.77071 29.7231 6.53273 29.35 6.29325C29.0438 6.09693 28.7391 5.89854 28.4345 5.70022C28.0787 5.4686 27.7231 5.23709 27.3654 5.0091C26.9391 4.73852 26.5108 4.47021 26.0823 4.20181C25.34 3.7368 24.5972 3.27149 23.8632 2.79347C22.7809 2.09059 21.6987 1.38771 20.6018 0.711591C19.86 0.254357 19.0988 0.268949 18.3643 0.718887C17.7753 1.08027 17.1933 1.45315 16.6119 1.82567C16.3481 1.99468 16.0844 2.16362 15.8203 2.33137C15.1952 2.7278 14.5708 3.12423 13.9464 3.52066C13.3219 3.91709 12.6975 4.31353 12.0724 4.70996C11.8584 4.84372 11.8462 4.83886 11.8462 4.58592C11.8444 4.33896 11.8443 4.09237 11.8442 3.84585C11.8441 3.45144 11.844 3.05725 11.8365 2.66213C11.8364 2.65293 11.8362 2.64372 11.836 2.6345C11.8315 2.37103 11.8269 2.10401 11.6906 1.86197C11.4279 1.39987 10.9002 1.20287 10.3116 1.35123C9.90543 1.45338 9.54548 1.91548 9.53089 2.37758C9.51633 2.91138 9.51145 3.44759 9.5066 3.9814L9.50657 3.98519C9.49927 4.73671 9.49927 5.49066 9.49927 6.24218C9.49927 6.35892 9.46522 6.43431 9.35821 6.49512C9.19299 6.59098 9.03461 6.69712 8.8759 6.80347C8.84538 6.82393 8.81484 6.84439 8.78424 6.86479C7.46117 7.73792 6.14055 8.60861 4.81749 9.4793C4.49323 9.69214 4.16869 9.90385 3.84426 10.1155C3.21965 10.5229 2.59543 10.9301 1.97437 11.3447C1.82906 11.4416 1.68132 11.5355 1.53346 11.6296C1.21357 11.833 0.893093 12.0368 0.595367 12.2713C0.267034 12.5291 0.142997 12.9815 0.284059 13.3658C0.42512 13.7501 0.763182 13.9714 1.20096 13.9665C1.49007 13.9645 1.71052 13.8105 1.92799 13.6586C1.97579 13.6252 2.02344 13.5919 2.07165 13.5604C2.58671 13.2233 3.0981 12.8777 3.60928 12.5322C3.8174 12.3915 4.02549 12.2509 4.23378 12.1108C4.36755 12.0208 4.41862 12.0476 4.42592 12.2081C4.43321 12.3516 4.43321 12.4951 4.43321 12.6386C4.43686 15.085 4.44112 17.5315 4.44537 19.9779C4.44963 22.4249 4.45389 24.8718 4.45754 27.3187C4.45835 27.8108 4.45808 28.3031 4.45781 28.7956C4.45727 29.7808 4.45672 30.7666 4.46483 31.7524C4.47213 32.7155 5.12879 33.3917 6.08218 33.489C6.40684 33.5236 6.73013 33.5254 7.05308 33.5273C7.16076 33.5279 7.26841 33.5285 7.37605 33.5303C7.52441 33.5327 7.62899 33.5668 7.71411 33.7078C8.17378 34.4715 8.84017 35.0066 9.64033 35.369C10.3675 35.6973 11.1336 35.9138 11.9289 35.9964C13.2301 36.1302 14.4948 35.9624 15.7084 35.4638C15.9686 35.3592 16.2192 35.2328 16.404 35.0066C16.4526 34.9482 16.494 34.885 16.4526 34.812C16.4137 34.7463 16.3408 34.7536 16.2751 34.7658C15.7814 34.8582 15.2828 34.9166 14.7794 34.9482C13.6071 35.0236 12.4421 35.0114 11.3088 34.6466C10.8029 34.4861 10.314 34.2867 9.87868 33.9875C9.15148 33.489 8.71857 32.7812 8.50698 31.9373C8.46077 31.7476 8.37564 31.7014 8.1981 31.7014C7.89325 31.703 7.5884 31.6981 7.28355 31.6933C7.13117 31.6908 6.97878 31.6884 6.8264 31.6868C6.61967 31.6843 6.47131 31.5871 6.34971 31.4241C6.25485 31.2976 6.23053 31.1541 6.23053 31.0009C6.23053 29.8629 6.2281 28.7249 6.22567 27.5869L6.22567 27.5863C6.22445 26.9764 6.22202 26.3672 6.21958 25.7583C6.21715 25.1506 6.21472 24.5431 6.21351 23.9357C6.21156 23.0355 6.21584 22.1368 6.22012 21.2372C6.22119 21.0115 6.22226 20.7858 6.22324 20.5599C6.2354 17.3739 6.23053 14.1878 6.22324 11.0018C6.22324 10.7829 6.2962 10.6564 6.47131 10.5421C7.5825 9.82233 8.6922 9.09804 9.80157 8.37396C10.1054 8.17568 10.4091 7.97742 10.7129 7.77926C11.063 7.55124 11.4128 7.32285 11.7625 7.09449C12.6734 6.4996 13.584 5.90498 14.4997 5.31798C14.837 5.10178 15.1738 4.88458 15.5107 4.66732C16.7505 3.86791 17.9914 3.06782 19.2593 2.31434C19.4076 2.22679 19.5317 2.22435 19.6776 2.30461C20.0949 2.53137 20.4958 2.78499 20.8966 3.03858C21.0074 3.10867 21.1182 3.17875 21.2293 3.24827C22.798 4.23083 24.3642 5.21827 25.9256 6.21056C26.5791 6.62563 27.2281 7.04503 27.8772 7.46442C28.2018 7.67413 28.5264 7.88384 28.8515 8.093C29.7732 8.68643 30.695 9.27743 31.6168 9.86843C31.787 9.97786 31.9566 10.0879 32.1262 10.1979C32.2959 10.308 32.4655 10.4181 32.6358 10.5275C32.772 10.6175 32.8425 10.7245 32.8328 10.8996C32.8254 11.0344 32.8306 11.1701 32.8358 11.3056C32.8392 11.3926 32.8425 11.4795 32.8425 11.566C32.8571 16.7732 32.8693 21.9778 32.879 27.185C32.881 28.1767 32.8746 29.1702 32.8682 30.1626C32.8669 30.3602 32.8656 30.5578 32.8644 30.7553C32.8644 30.8672 32.8596 30.9766 32.8498 31.0885C32.8231 31.429 32.5993 31.6552 32.2588 31.6746C32.057 31.6843 31.8527 31.6843 31.6508 31.6843C31.4173 31.6843 31.3662 31.6357 31.4052 31.4022C31.5 30.8136 31.5632 30.2251 31.6119 29.6316C31.6922 28.6466 31.6192 27.6738 31.4246 26.7107C31.2544 25.8668 30.9722 25.0593 30.5661 24.2932C30.031 23.2863 29.2722 22.5032 28.2799 21.9438C27.6889 21.6106 27.0347 21.4914 26.3756 21.3917C25.9184 21.3212 25.5073 21.0123 25.3809 20.5186C25.3569 20.4229 25.3445 20.3242 25.332 20.2255C25.3078 20.0329 25.2834 19.8402 25.1741 19.6698C25.0647 19.4971 25.0841 19.3536 25.2325 19.2004C25.7214 18.6896 26.0278 18.0986 25.9524 17.369C25.9135 16.9847 25.9913 16.6321 26.1226 16.2794C26.2734 15.8708 26.3975 15.4501 26.4777 15.022C26.4786 15.0178 26.4794 15.0135 26.4802 15.0091C26.5016 14.8985 26.5244 14.7804 26.4121 14.6961C26.2978 14.611 26.1859 14.6499 26.0813 14.7107C25.9694 14.7764 25.8575 14.8445 25.7554 14.9248C25.601 15.0462 25.4493 15.1723 25.2976 15.2984C25.2032 15.3769 25.1088 15.4554 25.0136 15.5328C24.9017 15.6228 24.7826 15.6544 24.6318 15.6228C24.1989 15.5279 23.7635 15.4452 23.3209 15.4063C23.1895 15.3942 23.1044 15.3188 23.0412 15.2142C22.9731 15.1023 22.9098 14.988 22.849 14.8737C22.7992 14.7785 22.7513 14.6823 22.7035 14.5862C22.6206 14.4196 22.5379 14.2534 22.4453 14.093C22.2483 13.7549 21.9711 13.7647 21.7765 14.1051C21.7449 14.1611 21.7206 14.2219 21.6962 14.2827C21.5163 14.7545 21.4603 15.2434 21.4798 15.7444C21.4895 15.9438 21.4457 16.1286 21.3776 16.3159C21.2925 16.5543 21.2317 16.7999 21.2025 17.0553C21.1441 17.5709 21.3193 18.0305 21.5114 18.4902C21.6476 18.8185 21.667 19.1566 21.5795 19.5044C21.4862 19.8801 21.2845 20.1993 21.0835 20.5176L21.0736 20.5332C20.5045 21.4355 20.4145 22.4059 20.6407 23.4298C20.7672 23.9989 21.0444 24.4975 21.329 24.9936C21.6792 25.5992 21.9905 26.2194 22.1899 26.8931C22.4794 27.8684 22.5669 28.8655 22.5159 29.8773C22.4818 30.5291 22.3869 31.176 22.241 31.8132C22.2021 31.9835 22.1559 32.1537 21.9297 32.1878C21.8517 32.2004 21.7773 32.2534 21.7065 32.3037C21.6957 32.3114 21.685 32.319 21.6743 32.3264C21.3703 32.538 21.3363 33.005 21.5965 33.2725C21.8166 33.4997 22.0896 33.4805 22.3618 33.4614L22.3845 33.4598C22.8685 33.4282 23.1239 33.236 23.2552 32.7861C23.3459 32.4795 23.428 32.1713 23.5102 31.8629C23.5669 31.6501 23.6237 31.4372 23.6833 31.2247C23.6944 31.1858 23.7045 31.1466 23.7147 31.1072ZM23.7364 21.8198C23.4543 21.8806 23.2816 22.0873 23.1503 22.3621C23.0749 22.2016 22.9922 22.0776 22.8754 21.9779C22.4814 21.6398 21.9123 21.793 21.7737 22.277C21.7129 22.4862 21.7567 22.6905 21.8467 22.885C22.0364 23.3009 22.3525 23.6147 22.7149 23.8749C22.9791 24.0649 23.069 24.1567 23.1567 24.1546C23.2441 24.1525 23.3294 24.0571 23.5832 23.8725C23.9869 23.5806 24.3469 23.2353 24.5098 22.7391C24.6947 22.1773 24.2934 21.6982 23.7364 21.8198Z" fill="#5664F5"/>
<path fill-rule="evenodd" clip-rule="evenodd" d="M17.5961 31.7335C17.5681 31.8213 17.542 31.9094 17.516 31.9971C17.4588 32.1902 17.402 32.3815 17.327 32.5649C17.1179 33.0829 16.6874 33.3529 16.1791 33.5183C15.8799 33.6156 15.571 33.6715 15.2573 33.6788C15.1454 33.6788 15.0506 33.7177 14.9727 33.7883C14.7782 33.9658 14.5544 34.0363 14.2918 34.0266C14.2332 34.0243 14.1747 34.0238 14.1164 34.0232C13.9278 34.0215 13.7406 34.0198 13.5548 33.9585C13.4405 33.922 13.3797 33.8588 13.3578 33.7445C13.3189 33.5353 13.3311 33.3262 13.3481 33.1194C13.4259 32.0761 13.5038 31.0327 13.443 29.9845C13.387 29.0165 13.1973 28.0728 12.8398 27.1681C12.8369 27.1605 12.8343 27.1526 12.8317 27.1447C12.8142 27.0922 12.7957 27.0366 12.6963 27.0197C12.708 27.1493 12.7188 27.2777 12.7296 27.4053C12.7502 27.6488 12.7705 27.8893 12.796 28.1288C12.8933 29.0286 12.9395 29.9285 12.8106 30.826C12.7699 31.1056 12.7066 31.381 12.6433 31.6565C12.6234 31.7428 12.6036 31.8291 12.5844 31.9155C12.5066 32.2682 12.492 32.5868 12.8082 32.8616C12.9955 33.0221 13.0757 33.2751 13.1292 33.5183C13.1633 33.6642 13.1025 33.742 12.9444 33.7396C12.6724 33.7379 12.4005 33.7389 12.1286 33.7398C11.6152 33.7416 11.1021 33.7434 10.5901 33.7275C9.92858 33.708 9.50053 33.2994 9.19409 32.7595C8.78306 32.0347 8.5204 31.2491 8.38906 30.4271C8.29421 29.8361 8.33312 29.2451 8.4523 28.6541C8.5812 28.0193 8.8998 27.494 9.3011 27.0051C9.74131 26.4676 9.96749 25.828 10.1353 25.1713C10.4928 23.7656 10.8528 22.3623 11.4097 21.0149C11.5022 20.7906 11.5874 20.5636 11.6726 20.3366C11.8517 19.8594 12.0308 19.3821 12.278 18.9306C12.3595 18.7806 12.4433 18.632 12.527 18.4835C12.7079 18.1626 12.8886 17.842 13.0465 17.5078C13.4357 16.6833 13.6278 15.8248 13.5889 14.9152C13.5816 14.745 13.5767 14.5748 13.5719 14.4045L13.5719 14.4044C13.5719 14.3412 13.5378 14.2755 13.4819 14.2658C13.4404 14.2596 13.4148 14.3065 13.3916 14.3491C13.3876 14.3564 13.3837 14.3636 13.3797 14.3704C13.2265 14.6574 13.0611 14.9371 12.796 15.1438C12.7036 15.2168 12.6039 15.2776 12.4847 15.2995C12.2901 15.3335 12.1248 15.2216 12.0664 15.0319C12.0221 14.8907 12.0099 14.7462 11.9977 14.6014C11.9918 14.5317 11.9859 14.4618 11.9764 14.3923C11.9107 13.9034 11.6651 13.4997 11.3805 13.1154C11.2176 12.8941 11.0887 12.6485 11.0473 12.3736C10.9671 11.8094 11.2614 11.3254 11.8037 11.1625C12.2634 11.0238 12.6623 10.7976 12.9906 10.445C13.3019 10.1118 13.691 9.9683 14.1458 9.9683C15.1989 9.97317 16.252 9.9683 17.3051 9.96101C17.6505 9.95858 17.9812 10.0194 18.3047 10.1191C18.4579 10.1653 18.5795 10.2699 18.6866 10.3866C19.0173 10.7368 19.387 11.0092 19.8564 11.1746C20.4523 11.3862 20.676 12.1134 20.406 12.7628C20.3376 12.9291 20.2483 13.0834 20.1588 13.2381C20.1148 13.3142 20.0708 13.3903 20.0291 13.4681C19.8053 13.884 19.7324 14.3412 19.6886 14.8033C19.6521 15.1803 19.5305 15.263 19.117 15.1462C18.8836 15.0806 18.7425 14.8933 18.6112 14.706C18.549 14.6183 18.4979 14.5237 18.4464 14.4285C18.4293 14.3969 18.4122 14.3654 18.3947 14.3339C18.3863 14.3185 18.3805 14.2991 18.3747 14.2796C18.3603 14.2311 18.3456 14.1818 18.2901 14.1904C18.2254 14.1991 18.2066 14.2767 18.1913 14.3399C18.1893 14.3479 18.1875 14.3557 18.1855 14.3631C18.1165 14.6226 18.109 14.8893 18.1016 15.1555C18.0993 15.236 18.0971 15.3165 18.0931 15.3967C18.0323 16.6322 18.3728 17.7753 18.8909 18.8795C18.9019 18.9032 18.913 18.9269 18.9241 18.9506C19.1443 19.4205 19.3644 19.8901 19.494 20.3971C19.6375 20.9565 19.6424 21.5232 19.5889 22.0899C19.539 22.6192 19.4193 23.1353 19.2996 23.6515C19.2207 23.9914 19.1419 24.3314 19.083 24.6752C18.9784 25.2808 18.8981 25.8888 18.869 26.5017C18.7911 28.0436 18.7765 29.588 18.869 31.1275C18.9127 31.8669 19.1097 32.5673 19.6156 33.1437C19.691 33.2289 19.7421 33.3262 19.781 33.4307C19.8759 33.6934 19.7324 33.9463 19.4527 33.9755C19.1268 34.0096 18.796 34.0242 18.4774 33.9439C18.2119 33.8775 18.1289 33.6332 18.0506 33.4024C18.0485 33.3964 18.0465 33.3905 18.0445 33.3845C17.909 32.9941 17.8306 32.5903 17.7521 32.1856C17.7363 32.1037 17.7204 32.0217 17.704 31.9399L17.7037 31.9384C17.6894 31.8647 17.6748 31.7888 17.5961 31.7335ZM15.6929 20.4585C15.6642 20.5102 15.6356 20.5619 15.6043 20.6118V20.6094C15.5782 20.5671 15.5533 20.5251 15.5286 20.4835C15.4795 20.4008 15.4315 20.3198 15.3781 20.2421C15.2954 20.123 15.1884 20.0281 15.0716 19.943C14.702 19.6706 14.2228 19.6463 13.8386 19.8798C13.4665 20.1059 13.2986 20.5072 13.3667 20.9766C13.4202 21.3439 13.5783 21.66 13.7924 21.9519C14.2593 22.5891 14.8698 23.0658 15.5264 23.489C15.5977 23.5341 15.6389 23.5073 15.6929 23.472L15.6967 23.4695C16.132 23.1947 16.5406 22.8785 16.9103 22.5161C17.2897 22.144 17.6205 21.7354 17.781 21.2125C17.9561 20.641 17.7737 20.1059 17.3116 19.853C16.8349 19.5903 16.2561 19.7241 15.8718 20.1789C15.8004 20.2645 15.7467 20.3615 15.6929 20.4585Z" fill="#5664F5"/>
</g>
<defs>
<clipPath id="clip0_52_1854">
<rect width="38.5293" height="35.6643" fill="white" transform="translate(0.21875 0.351562)"/>
</clipPath>
</defs>
</svg>