<svg width="181" height="20" viewBox="0 0 181 20" fill="none" xmlns="http://www.w3.org/2000/svg">
<path d="M5.74438 15.2556C4.62438 15.2556 3.55104 15.109 2.52438 14.8156C1.49771 14.509 0.671042 14.1156 0.044375 13.6356L1.14438 11.1956C1.74438 11.6223 2.45104 11.9756 3.26438 12.2556C4.09104 12.5223 4.92438 12.6556 5.76438 12.6556C6.40438 12.6556 6.91771 12.5956 7.30438 12.4756C7.70438 12.3423 7.99771 12.1623 8.18438 11.9356C8.37104 11.709 8.46438 11.449 8.46438 11.1556C8.46438 10.7823 8.31771 10.489 8.02438 10.2756C7.73104 10.049 7.34438 9.86896 6.86438 9.73563C6.38438 9.58896 5.85104 9.45562 5.26438 9.33562C4.69104 9.20229 4.11104 9.04229 3.52438 8.85562C2.95104 8.66896 2.42438 8.42896 1.94438 8.13562C1.46438 7.84229 1.07104 7.45562 0.764375 6.97562C0.471042 6.49562 0.324375 5.88229 0.324375 5.13562C0.324375 4.33562 0.537708 3.60896 0.964375 2.95562C1.40438 2.28896 2.05771 1.76229 2.92438 1.37562C3.80438 0.975625 4.90438 0.775625 6.22438 0.775625C7.10438 0.775625 7.97104 0.882291 8.82438 1.09562C9.67771 1.29562 10.431 1.60229 11.0844 2.01562L10.0844 4.47562C9.43104 4.10229 8.77771 3.82896 8.12438 3.65562C7.47104 3.46896 6.83104 3.37562 6.20438 3.37562C5.57771 3.37562 5.06438 3.44896 4.66438 3.59562C4.26438 3.74229 3.97771 3.93562 3.80438 4.17562C3.63104 4.40229 3.54438 4.66896 3.54438 4.97562C3.54438 5.33562 3.69104 5.62896 3.98438 5.85562C4.27771 6.06896 4.66438 6.24229 5.14438 6.37562C5.62438 6.50896 6.15104 6.64229 6.72438 6.77562C7.31104 6.90896 7.89104 7.06229 8.46438 7.23562C9.05104 7.40896 9.58438 7.64229 10.0644 7.93562C10.5444 8.22896 10.931 8.61562 11.2244 9.09562C11.531 9.57562 11.6844 10.1823 11.6844 10.9156C11.6844 11.7023 11.4644 12.4223 11.0244 13.0756C10.5844 13.729 9.92438 14.2556 9.04438 14.6556C8.17771 15.0556 7.07771 15.2556 5.74438 15.2556ZM19.0183 15.1756C17.7916 15.1756 16.7116 14.9356 15.7783 14.4556C14.8583 13.9756 14.1449 13.3223 13.6383 12.4956C13.1316 11.6556 12.8783 10.7023 12.8783 9.63562C12.8783 8.55562 13.1249 7.60229 13.6183 6.77562C14.1249 5.93562 14.8116 5.28229 15.6783 4.81562C16.5449 4.33562 17.5249 4.09562 18.6183 4.09562C19.6716 4.09562 20.6183 4.32229 21.4583 4.77562C22.3116 5.21562 22.9849 5.85562 23.4783 6.69562C23.9716 7.52229 24.2183 8.51562 24.2183 9.67562C24.2183 9.79562 24.2116 9.93562 24.1983 10.0956C24.1849 10.2423 24.1716 10.3823 24.1583 10.5156H15.4183V8.69562H22.5183L21.3183 9.23562C21.3183 8.67562 21.2049 8.18896 20.9783 7.77562C20.7516 7.36229 20.4383 7.04229 20.0383 6.81562C19.6383 6.57562 19.1716 6.45562 18.6383 6.45562C18.1049 6.45562 17.6316 6.57562 17.2183 6.81562C16.8183 7.04229 16.5049 7.36896 16.2783 7.79562C16.0516 8.20896 15.9383 8.70229 15.9383 9.27562V9.75562C15.9383 10.3423 16.0649 10.8623 16.3183 11.3156C16.5849 11.7556 16.9516 12.0956 17.4183 12.3356C17.8983 12.5623 18.4583 12.6756 19.0983 12.6756C19.6716 12.6756 20.1716 12.589 20.5983 12.4156C21.0383 12.2423 21.4383 11.9823 21.7983 11.6356L23.4583 13.4356C22.9649 13.9956 22.3449 14.429 21.5983 14.7356C20.8516 15.029 19.9916 15.1756 19.0183 15.1756ZM31.3555 19.0556C30.3421 19.0556 29.3621 18.929 28.4155 18.6756C27.4821 18.4356 26.7021 18.069 26.0755 17.5756L27.3155 15.3356C27.7688 15.709 28.3421 16.0023 29.0355 16.2156C29.7421 16.4423 30.4355 16.5556 31.1155 16.5556C32.2221 16.5556 33.0221 16.309 33.5155 15.8156C34.0221 15.3223 34.2755 14.589 34.2755 13.6156V11.9956L34.4755 9.29562L34.4355 6.57562V4.25562H37.3955V13.2156C37.3955 15.2156 36.8755 16.689 35.8355 17.6356C34.7955 18.5823 33.3021 19.0556 31.3555 19.0556ZM30.8755 14.4956C29.8755 14.4956 28.9688 14.2823 28.1555 13.8556C27.3555 13.4156 26.7088 12.809 26.2155 12.0356C25.7355 11.249 25.4955 10.3356 25.4955 9.29562C25.4955 8.24229 25.7355 7.32896 26.2155 6.55562C26.7088 5.76896 27.3555 5.16229 28.1555 4.73563C28.9688 4.30896 29.8755 4.09562 30.8755 4.09562C31.7821 4.09562 32.5821 4.28229 33.2755 4.65562C33.9688 5.01562 34.5088 5.58229 34.8955 6.35562C35.2821 7.11562 35.4755 8.09562 35.4755 9.29562C35.4755 10.4823 35.2821 11.4623 34.8955 12.2356C34.5088 12.9956 33.9688 13.5623 33.2755 13.9356C32.5821 14.309 31.7821 14.4956 30.8755 14.4956ZM31.4955 11.9356C32.0421 11.9356 32.5288 11.829 32.9555 11.6156C33.3821 11.389 33.7155 11.0756 33.9555 10.6756C34.1955 10.2756 34.3155 9.81562 34.3155 9.29562C34.3155 8.76229 34.1955 8.30229 33.9555 7.91562C33.7155 7.51562 33.3821 7.20896 32.9555 6.99562C32.5288 6.76896 32.0421 6.65562 31.4955 6.65562C30.9488 6.65562 30.4621 6.76896 30.0355 6.99562C29.6088 7.20896 29.2688 7.51562 29.0155 7.91562C28.7755 8.30229 28.6555 8.76229 28.6555 9.29562C28.6555 9.81562 28.7755 10.2756 29.0155 10.6756C29.2688 11.0756 29.6088 11.389 30.0355 11.6156C30.4621 11.829 30.9488 11.9356 31.4955 11.9356ZM44.8394 15.1756C43.946 15.1756 43.146 15.0023 42.4394 14.6556C41.746 14.309 41.206 13.7823 40.8194 13.0756C40.4327 12.3556 40.2394 11.4423 40.2394 10.3356V4.25562H43.3594V9.87563C43.3594 10.769 43.546 11.429 43.9194 11.8556C44.306 12.269 44.846 12.4756 45.5394 12.4756C46.0194 12.4756 46.446 12.3756 46.8194 12.1756C47.1927 11.9623 47.486 11.6423 47.6994 11.2156C47.9127 10.7756 48.0194 10.229 48.0194 9.57562V4.25562H51.1394V15.0156H48.1794V12.0556L48.7194 12.9156C48.3594 13.6623 47.826 14.229 47.1194 14.6156C46.426 14.989 45.666 15.1756 44.8394 15.1756ZM60.5698 4.09562C61.4232 4.09562 62.1832 4.26896 62.8498 4.61562C63.5298 4.94896 64.0632 5.46896 64.4498 6.17562C64.8365 6.86896 65.0298 7.76229 65.0298 8.85562V15.0156H61.9098V9.33562C61.9098 8.46896 61.7165 7.82896 61.3298 7.41562C60.9565 7.00229 60.4232 6.79562 59.7298 6.79562C59.2365 6.79562 58.7898 6.90229 58.3898 7.11562C58.0032 7.31562 57.6965 7.62896 57.4698 8.05562C57.2565 8.48229 57.1498 9.02896 57.1498 9.69562V15.0156H54.0298V4.25562H57.0098V7.23562L56.4498 6.33562C56.8365 5.61562 57.3898 5.06229 58.1098 4.67562C58.8298 4.28896 59.6498 4.09562 60.5698 4.09562ZM72.5561 15.1756C71.5428 15.1756 70.6294 14.949 69.8161 14.4956C69.0028 14.029 68.3561 13.3823 67.8761 12.5556C67.4094 11.729 67.1761 10.7556 67.1761 9.63562C67.1761 8.50229 67.4094 7.52229 67.8761 6.69562C68.3561 5.86896 69.0028 5.22896 69.8161 4.77562C70.6294 4.32229 71.5428 4.09562 72.5561 4.09562C73.4628 4.09562 74.2561 4.29562 74.9361 4.69562C75.6161 5.09562 76.1428 5.70229 76.5161 6.51562C76.8894 7.32896 77.0761 8.36896 77.0761 9.63562C77.0761 10.889 76.8961 11.929 76.5361 12.7556C76.1761 13.569 75.6561 14.1756 74.9761 14.5756C74.3094 14.9756 73.5028 15.1756 72.5561 15.1756ZM73.0961 12.6156C73.6028 12.6156 74.0628 12.4956 74.4761 12.2556C74.8894 12.0156 75.2161 11.6756 75.4561 11.2356C75.7094 10.7823 75.8361 10.249 75.8361 9.63562C75.8361 9.00896 75.7094 8.47562 75.4561 8.03562C75.2161 7.59562 74.8894 7.25562 74.4761 7.01562C74.0628 6.77562 73.6028 6.65562 73.0961 6.65562C72.5761 6.65562 72.1094 6.77562 71.6961 7.01562C71.2828 7.25562 70.9494 7.59562 70.6961 8.03562C70.4561 8.47562 70.3361 9.00896 70.3361 9.63562C70.3361 10.249 70.4561 10.7823 70.6961 11.2356C70.9494 11.6756 71.2828 12.0156 71.6961 12.2556C72.1094 12.4956 72.5761 12.6156 73.0961 12.6156ZM75.9161 15.0156V12.8156L75.9761 9.61562L75.7761 6.43562V0.175624H78.8961V15.0156H75.9161ZM88.3838 15.0156V12.9156L88.1838 12.4556V8.69562C88.1838 8.02896 87.9771 7.50896 87.5638 7.13562C87.1638 6.76229 86.5438 6.57562 85.7038 6.57562C85.1304 6.57562 84.5638 6.66896 84.0038 6.85562C83.4571 7.02896 82.9904 7.26896 82.6038 7.57562L81.4838 5.39562C82.0704 4.98229 82.7771 4.66229 83.6038 4.43562C84.4304 4.20896 85.2704 4.09562 86.1238 4.09562C87.7638 4.09562 89.0371 4.48229 89.9438 5.25562C90.8504 6.02896 91.3038 7.23562 91.3038 8.87562V15.0156H88.3838ZM85.1038 15.1756C84.2638 15.1756 83.5438 15.0356 82.9438 14.7556C82.3438 14.4623 81.8838 14.069 81.5638 13.5756C81.2438 13.0823 81.0838 12.529 81.0838 11.9156C81.0838 11.2756 81.2371 10.7156 81.5438 10.2356C81.8638 9.75562 82.3638 9.38229 83.0438 9.11562C83.7238 8.83562 84.6104 8.69562 85.7038 8.69562H88.5638V10.5156H86.0438C85.3104 10.5156 84.8038 10.6356 84.5238 10.8756C84.2571 11.1156 84.1238 11.4156 84.1238 11.7756C84.1238 12.1756 84.2771 12.4956 84.5838 12.7356C84.9038 12.9623 85.3371 13.0756 85.8838 13.0756C86.4038 13.0756 86.8704 12.9556 87.2838 12.7156C87.6971 12.4623 87.9971 12.0956 88.1838 11.6156L88.6638 13.0556C88.4371 13.749 88.0238 14.2756 87.4238 14.6356C86.8238 14.9956 86.0504 15.1756 85.1038 15.1756ZM97.7475 15.1756C96.8275 15.1756 95.9408 15.069 95.0875 14.8556C94.2475 14.629 93.5808 14.349 93.0875 14.0156L94.1275 11.7756C94.6208 12.0823 95.2008 12.3356 95.8675 12.5356C96.5475 12.7223 97.2142 12.8156 97.8675 12.8156C98.5875 12.8156 99.0942 12.729 99.3875 12.5556C99.6942 12.3823 99.8475 12.1423 99.8475 11.8356C99.8475 11.5823 99.7275 11.3956 99.4875 11.2756C99.2608 11.1423 98.9542 11.0423 98.5675 10.9756C98.1808 10.909 97.7542 10.8423 97.2875 10.7756C96.8342 10.709 96.3742 10.6223 95.9075 10.5156C95.4408 10.3956 95.0142 10.2223 94.6275 9.99562C94.2408 9.76896 93.9275 9.46229 93.6875 9.07562C93.4608 8.68896 93.3475 8.18896 93.3475 7.57562C93.3475 6.89562 93.5408 6.29562 93.9275 5.77562C94.3275 5.25562 94.9008 4.84896 95.6475 4.55562C96.3942 4.24896 97.2875 4.09562 98.3275 4.09562C99.0608 4.09562 99.8075 4.17562 100.568 4.33562C101.328 4.49562 101.961 4.72896 102.468 5.03562L101.428 7.25562C100.908 6.94896 100.381 6.74229 99.8475 6.63562C99.3275 6.51562 98.8208 6.45562 98.3275 6.45562C97.6342 6.45562 97.1275 6.54896 96.8075 6.73562C96.4875 6.92229 96.3275 7.16229 96.3275 7.45562C96.3275 7.72229 96.4408 7.92229 96.6675 8.05562C96.9075 8.18896 97.2208 8.29562 97.6075 8.37562C97.9942 8.45562 98.4142 8.52896 98.8675 8.59562C99.3342 8.64896 99.8008 8.73562 100.268 8.85562C100.734 8.97562 101.154 9.14896 101.528 9.37562C101.914 9.58896 102.228 9.88896 102.468 10.2756C102.708 10.649 102.828 11.1423 102.828 11.7556C102.828 12.4223 102.628 13.0156 102.228 13.5356C101.828 14.0423 101.248 14.4423 100.488 14.7356C99.7408 15.029 98.8275 15.1756 97.7475 15.1756ZM114.573 1.01562H117.813V15.0156H114.573V1.01562ZM108.213 15.0156H104.973V1.01562H108.213V15.0156ZM114.813 9.27562H107.973V6.53562H114.813V9.27562ZM125.445 15.1756C124.552 15.1756 123.752 15.0023 123.045 14.6556C122.352 14.309 121.812 13.7823 121.425 13.0756C121.038 12.3556 120.845 11.4423 120.845 10.3356V4.25562H123.965V9.87563C123.965 10.769 124.152 11.429 124.525 11.8556C124.912 12.269 125.452 12.4756 126.145 12.4756C126.625 12.4756 127.052 12.3756 127.425 12.1756C127.798 11.9623 128.092 11.6423 128.305 11.2156C128.518 10.7756 128.625 10.229 128.625 9.57562V4.25562H131.745V15.0156H128.785V12.0556L129.325 12.9156C128.965 13.6623 128.432 14.229 127.725 14.6156C127.032 14.989 126.272 15.1756 125.445 15.1756ZM139.975 15.1756C138.749 15.1756 137.669 14.9356 136.735 14.4556C135.815 13.9756 135.102 13.3223 134.595 12.4956C134.089 11.6556 133.835 10.7023 133.835 9.63562C133.835 8.55562 134.082 7.60229 134.575 6.77562C135.082 5.93562 135.769 5.28229 136.635 4.81562C137.502 4.33562 138.482 4.09562 139.575 4.09562C140.629 4.09562 141.575 4.32229 142.415 4.77562C143.269 5.21562 143.942 5.85562 144.435 6.69562C144.929 7.52229 145.175 8.51562 145.175 9.67562C145.175 9.79562 145.169 9.93562 145.155 10.0956C145.142 10.2423 145.129 10.3823 145.115 10.5156H136.375V8.69562H143.475L142.275 9.23562C142.275 8.67562 142.162 8.18896 141.935 7.77562C141.709 7.36229 141.395 7.04229 140.995 6.81562C140.595 6.57562 140.129 6.45562 139.595 6.45562C139.062 6.45562 138.589 6.57562 138.175 6.81562C137.775 7.04229 137.462 7.36896 137.235 7.79562C137.009 8.20896 136.895 8.70229 136.895 9.27562V9.75562C136.895 10.3423 137.022 10.8623 137.275 11.3156C137.542 11.7556 137.909 12.0956 138.375 12.3356C138.855 12.5623 139.415 12.6756 140.055 12.6756C140.629 12.6756 141.129 12.589 141.555 12.4156C141.995 12.2423 142.395 11.9823 142.755 11.6356L144.415 13.4356C143.922 13.9956 143.302 14.429 142.555 14.7356C141.809 15.029 140.949 15.1756 139.975 15.1756ZM147.253 15.0156V0.175624H150.373V15.0156H147.253ZM153.268 15.0156V0.175624H156.388V15.0156H153.268ZM165.884 15.0156V12.9156L165.684 12.4556V8.69562C165.684 8.02896 165.477 7.50896 165.064 7.13562C164.664 6.76229 164.044 6.57562 163.204 6.57562C162.63 6.57562 162.064 6.66896 161.504 6.85562C160.957 7.02896 160.49 7.26896 160.104 7.57562L158.984 5.39562C159.57 4.98229 160.277 4.66229 161.104 4.43562C161.93 4.20896 162.77 4.09562 163.624 4.09562C165.264 4.09562 166.537 4.48229 167.444 5.25562C168.35 6.02896 168.804 7.23562 168.804 8.87562V15.0156H165.884ZM162.604 15.1756C161.764 15.1756 161.044 15.0356 160.444 14.7556C159.844 14.4623 159.384 14.069 159.064 13.5756C158.744 13.0823 158.584 12.529 158.584 11.9156C158.584 11.2756 158.737 10.7156 159.044 10.2356C159.364 9.75562 159.864 9.38229 160.544 9.11562C161.224 8.83562 162.11 8.69562 163.204 8.69562H166.064V10.5156H163.544C162.81 10.5156 162.304 10.6356 162.024 10.8756C161.757 11.1156 161.624 11.4156 161.624 11.7756C161.624 12.1756 161.777 12.4956 162.084 12.7356C162.404 12.9623 162.837 13.0756 163.384 13.0756C163.904 13.0756 164.37 12.9556 164.784 12.7156C165.197 12.4623 165.497 12.0956 165.684 11.6156L166.164 13.0556C165.937 13.749 165.524 14.2756 164.924 14.6356C164.324 14.9956 163.55 15.1756 162.604 15.1756ZM175.248 15.1756C174.328 15.1756 173.441 15.069 172.588 14.8556C171.748 14.629 171.081 14.349 170.588 14.0156L171.628 11.7756C172.121 12.0823 172.701 12.3356 173.368 12.5356C174.048 12.7223 174.714 12.8156 175.368 12.8156C176.088 12.8156 176.594 12.729 176.888 12.5556C177.194 12.3823 177.348 12.1423 177.348 11.8356C177.348 11.5823 177.228 11.3956 176.988 11.2756C176.761 11.1423 176.454 11.0423 176.067 10.9756C175.681 10.909 175.254 10.8423 174.788 10.7756C174.334 10.709 173.874 10.6223 173.408 10.5156C172.941 10.3956 172.514 10.2223 172.128 9.99562C171.741 9.76896 171.428 9.46229 171.188 9.07562C170.961 8.68896 170.847 8.18896 170.847 7.57562C170.847 6.89562 171.041 6.29562 171.428 5.77562C171.828 5.25562 172.401 4.84896 173.148 4.55562C173.894 4.24896 174.788 4.09562 175.828 4.09562C176.561 4.09562 177.308 4.17562 178.068 4.33562C178.828 4.49562 179.461 4.72896 179.968 5.03562L178.928 7.25562C178.408 6.94896 177.881 6.74229 177.348 6.63562C176.828 6.51562 176.321 6.45562 175.828 6.45562C175.134 6.45562 174.628 6.54896 174.308 6.73562C173.988 6.92229 173.828 7.16229 173.828 7.45562C173.828 7.72229 173.941 7.92229 174.168 8.05562C174.408 8.18896 174.721 8.29562 175.108 8.37562C175.494 8.45562 175.914 8.52896 176.368 8.59562C176.834 8.64896 177.301 8.73562 177.768 8.85562C178.234 8.97562 178.654 9.14896 179.028 9.37562C179.414 9.58896 179.728 9.88896 179.968 10.2756C180.208 10.649 180.328 11.1423 180.328 11.7556C180.328 12.4223 180.128 13.0156 179.728 13.5356C179.328 14.0423 178.748 14.4423 177.988 14.7356C177.241 15.029 176.328 15.1756 175.248 15.1756Z" fill="#5664F5"/>
</svg>